<?xml version="1.0" encoding="iso-8859-1"?>
<!-- Generator: Adobe Illustrator 19.0.0, SVG Export Plug-In . SVG Version: 6.00 Build 0)  -->
<svg version="1.1" id="Capa_1" xmlns="http://www.w3.org/2000/svg" xmlns:xlink="http://www.w3.org/1999/xlink" x="0px" y="0px"
	 viewBox="0 0 512 512" style="enable-background:new 0 0 512 512;" xml:space="preserve">
<g>
	<g>
		<g>
			<path  style="fill:#A1A1A1;" d="M359.542,344.458l-83.26-83.26c0.441-1.707,1.052-3.355,1.052-5.198c0-7.794-4.408-14.332-10.667-18.056V74.666
				C266.667,68.771,261.896,64,256,64s-10.667,4.771-10.667,10.667v163.277c-6.259,3.724-10.667,10.262-10.667,18.056
				c0,11.76,9.563,21.333,21.333,21.333c1.842,0,3.491-0.611,5.198-1.052l83.26,83.26c2.083,2.083,4.813,3.125,7.542,3.125
				c2.729,0,5.458-1.042,7.542-3.125C363.708,355.375,363.708,348.625,359.542,344.458z"/>
			<path style="fill:#A1A1A1;" d="M405.426,423.002c-3.803-4.294-10.194-4.638-14.639-1.022c-9.699,7.888-20.048,14.891-30.93,20.934
				c-5.004,2.779-7.096,8.857-4.578,14.018l9.335,19.147c2.642,5.418,9.312,7.724,14.579,4.835
				c13.868-7.608,27.018-16.509,39.279-26.591c4.642-3.818,5.038-10.9,1.05-15.402L405.426,423.002z"/>
			<path style="fill:#A1A1A1;" d="M318.585,471.411c-1.561-5.535-7.215-8.667-12.861-7.391c-15.625,3.53-31.665,5.313-47.805,5.313
				c-130.177,0-233.71-115.474-212.055-248.655c13.941-85.745,81.57-155.967,167.283-173.458
				c66.378-13.544,131.322,3.936,179.897,43.078l-14.163,22.952c-1.763,2.865-2.057,6.396-0.819,9.51
				c1.259,3.125,3.904,5.479,7.178,6.354l88.995,23.927c0.945,0.26,1.889,0.375,2.813,0.375c4.744,0,9.068-3.125,10.369-7.875
				c0.742-2.716,0.299-5.448-0.929-7.754l0.089,0.025c-0.062-0.116-0.135-0.224-0.197-0.34c-0.012-0.02-0.021-0.038-0.033-0.057
				C433.11,36.487,319.241-18.914,202.122,5.888C99.495,27.621,19.362,112.183,3.214,215.1C-21.76,374.28,102.172,512,257.919,512
				c19.818,0,39.502-2.242,58.677-6.685c5.922-1.371,9.418-7.563,7.778-13.375L318.585,471.411z"/>
			<path style="fill:#A1A1A1;" d="M483.063,348.945l-19.6-8.13c-5.284-2.191-11.18,0.302-13.611,5.507c-5.293,11.329-11.567,22.176-18.751,32.419
				c-3.294,4.697-2.537,11.085,1.968,14.622l16.702,13.115c4.729,3.714,11.731,2.854,15.215-2.059
				c9.185-12.952,17.156-26.729,23.815-41.146C491.329,357.798,488.611,351.247,483.063,348.945z"/>
			<path style="fill:#A1A1A1;" d="M501.251,256h-21.194c-5.715,0-10.218,4.563-10.493,10.305c-0.374,7.874-1.179,15.725-2.41,23.492
				c-0.9,5.676,2.575,11.065,8.168,12.244l20.737,4.372c5.872,1.237,11.786-2.628,12.762-8.581c1.67-10.172,2.729-20.47,3.17-30.793
				C512.248,261.009,507.25,256,501.251,256z"/>
		</g>
	</g>
</g>
<g>
</g>
<g>
</g>
<g>
</g>
<g>
</g>
<g>
</g>
<g>
</g>
<g>
</g>
<g>
</g>
<g>
</g>
<g>
</g>
<g>
</g>
<g>
</g>
<g>
</g>
<g>
</g>
<g>
</g>
</svg>
