<?xml version="1.0" standalone="no"?>
<!DOCTYPE svg PUBLIC "-//W3C//DTD SVG 20010904//EN"
 "http://www.w3.org/TR/2001/REC-SVG-20010904/DTD/svg10.dtd">
<svg version="1.0" xmlns="http://www.w3.org/2000/svg"
 width="512.000000pt" height="512.000000pt" viewBox="0 0 512.000000 512.000000"
 preserveAspectRatio="xMidYMid meet">
<metadata>
Created by potrace 1.16, written by Peter Selinger 2001-2019
</metadata>
<g transform="translate(0.000000,512.000000) scale(0.100000,-0.100000)"
fill="#000000" stroke="none">
<path d="M2305 5113 c-671 -72 -1279 -393 -1707 -903 -300 -357 -489 -767
-569 -1234 -31 -176 -38 -543 -14 -726 120 -942 730 -1729 1612 -2079 191 -76
441 -137 658 -161 116 -13 434 -13 550 0 572 64 1091 307 1503 705 426 410
692 944 767 1535 24 183 17 550 -14 726 -95 555 -351 1042 -747 1424 -386 372
-837 600 -1368 691 -97 17 -172 22 -376 24 -140 2 -273 1 -295 -2z m513 -184
c416 -45 823 -207 1172 -465 135 -100 374 -339 474 -474 258 -349 420 -756
465 -1172 14 -124 14 -397 0 -513 -36 -314 -139 -638 -282 -890 -68 -120 -140
-226 -148 -218 -4 4 -21 44 -39 88 -180 457 -547 847 -1007 1072 l-133 65 50
56 c207 236 300 472 300 761 0 197 -35 344 -121 513 -268 522 -895 744 -1437
510 -163 -71 -332 -205 -443 -350 -98 -129 -183 -330 -209 -492 -15 -95 -12
-286 5 -378 41 -214 126 -383 285 -564 l50 -56 -133 -65 c-461 -226 -827 -615
-1007 -1072 -18 -44 -35 -84 -39 -88 -8 -8 -80 98 -148 218 -143 252 -246 576
-282 890 -14 116 -14 389 0 513 45 416 207 823 465 1172 100 135 339 374 474
474 342 253 754 419 1155 464 114 13 419 14 533 1z m-48 -780 c329 -75 590
-327 692 -669 29 -97 36 -300 13 -410 -90 -446 -464 -754 -915 -754 -451 0
-825 308 -915 754 -23 110 -16 313 13 410 82 274 273 500 517 611 186 84 391
104 595 58z m-700 -1905 c315 -154 682 -151 997 7 l74 37 57 -19 c31 -11 108
-44 170 -74 377 -181 670 -469 862 -845 54 -108 130 -303 130 -337 0 -34 -253
-272 -415 -390 -317 -230 -732 -390 -1127 -432 -125 -14 -391 -14 -516 0 -391
42 -794 195 -1112 422 -170 122 -430 363 -430 400 0 9 17 65 39 124 165 463
508 844 952 1057 108 53 218 97 229 93 3 -1 43 -21 90 -43z"/>
</g>
</svg>
