<?xml version="1.0" encoding="iso-8859-1"?>
<!-- Generator: Adobe Illustrator 19.0.0, SVG Export Plug-In . SVG Version: 6.00 Build 0)  -->
<svg version="1.1" id="Capa_1" xmlns="http://www.w3.org/2000/svg" xmlns:xlink="http://www.w3.org/1999/xlink" x="0px" y="0px"
	 viewBox="0 0 496.011 496.011" style="enable-background:new 0 0 496.011 496.011;" xml:space="preserve">
<g>
	<g>
		<g>
			<path d="M408,180.107c-4.418,0-8,3.582-8,8v263.904H16v-384h320c4.418,0,8-3.582,8-8s-3.582-8-8-8H8c-4.418,0-8,3.582-8,8v400
				c0,4.418,3.582,8,8,8h400c4.418,0,8-3.582,8-8V188.107C416,183.688,412.418,180.107,408,180.107z"/>
			<path d="M493.728,30.411c-3.093-3.163-8.165-3.221-11.328-0.128L168.464,336.387L62.016,214.747
				c-2.684-3.51-7.704-4.18-11.214-1.496s-4.18,7.704-1.496,11.214c0.218,0.286,0.456,0.556,0.711,0.81l112,128
				c1.435,1.647,3.482,2.636,5.664,2.736H168c2.092,0.004,4.102-0.812,5.6-2.272l320-312
				C496.763,38.646,496.821,33.574,493.728,30.411z"/>
		</g>
	</g>
</g>
<g>
</g>
<g>
</g>
<g>
</g>
<g>
</g>
<g>
</g>
<g>
</g>
<g>
</g>
<g>
</g>
<g>
</g>
<g>
</g>
<g>
</g>
<g>
</g>
<g>
</g>
<g>
</g>
<g>
</g>
</svg>
