<svg id="Capa_1" enable-background="new 0 0 512 512" height="512" viewBox="0 0 512 512" width="512" xmlns="http://www.w3.org/2000/svg"><g><g><path d="m126.585 512c-27.384 0-54.767-10.424-75.614-31.27-20.198-20.198-31.321-47.052-31.321-75.614 0-28.563 11.123-55.417 31.321-75.615l306.329-306.329c14.942-14.943 34.808-23.172 55.94-23.172 21.131 0 40.998 8.229 55.94 23.172 14.942 14.942 23.171 34.808 23.171 55.94 0 21.131-8.229 40.998-23.171 55.94l-264.741 264.74c-19.997 19.996-52.533 19.996-72.531 0-19.997-19.997-19.997-52.533 0-72.531l186.24-186.24c5.478-5.478 14.361-5.478 19.84 0s5.479 14.361 0 19.84l-186.241 186.239c-9.057 9.058-9.057 23.794 0 32.852 9.058 9.058 23.794 9.058 32.852 0l264.741-264.74c9.643-9.643 14.953-22.464 14.953-36.1 0-13.637-5.31-26.458-14.953-36.1-19.906-19.906-52.295-19.906-72.201 0l-306.329 306.328c-14.898 14.898-23.103 34.706-23.103 55.775 0 21.07 8.205 40.877 23.103 55.775 30.755 30.754 80.796 30.753 111.549.001l228.446-228.447c5.478-5.478 14.361-5.478 19.84 0s5.479 14.361 0 19.84l-228.446 228.446c-20.847 20.846-48.231 31.27-75.614 31.27z" fill="#5a5a5a"/></g><g><path d="m430.645 252.283c5.479-5.478 5.479-14.362 0-19.84-5.478-5.478-14.361-5.478-19.84 0l-228.445 228.447c-18.731 18.731-44.614 26.031-68.94 21.944-4.959.695-9.956 1.046-14.955 1.046-21.091 0-42.178-6.19-60.282-18.557 3.738 5.463 8.005 10.623 12.787 15.406 20.848 20.847 48.231 31.271 75.614 31.271 27.384 0 54.768-10.424 75.615-31.27z" fill="#444"/></g></g></svg>