<?xml version="1.0"?>
<svg xmlns="http://www.w3.org/2000/svg" xmlns:xlink="http://www.w3.org/1999/xlink" version="1.1" id="Capa_1" x="0px" y="0px" viewBox="0 0 258.688 258.688" style="enable-background:new 0 0 258.688 258.688;" xml:space="preserve" width="512px" height="512px"><g><g>
	<path d="M129.353,258.688c-31.034,0-60.438-10.884-83.823-30.843l58.726-20.431l-0.4-4.618   c-0.036-0.442-0.095-0.871-0.149-1.313c-0.042-0.292-0.101-0.597-0.101-0.889v-15.293c7.87,4.732,16.57,7.429,25.741,7.429   c9.177,0,17.871-2.697,25.741-7.429v15.293c0,0.465-0.078,0.913-0.131,1.366l-0.638,5.919l58.428,20.311   C189.427,247.929,160.172,258.688,129.353,258.688z" data-original="#010002" class="active-path" data-old_color="#010002" fill="#1BB0DF"/>
	<path d="M91.684,157.161c-8.312-12.871-13.425-29.942-13.425-48.708c0-39.894,22.919-72.348,51.094-72.348   s51.094,32.454,51.094,72.348c0,18.76-5.108,35.813-13.408,48.684c-3.127,4.851-6.707,9.088-10.657,12.596   c-7.846,6.969-17.095,11.063-27.024,11.063s-19.178-4.099-27.024-11.063C98.379,166.231,94.811,162.001,91.684,157.161z" data-original="#010002" class="active-path" data-old_color="#010002" fill="#1BB0DF"/>
	<path d="M222.567,218.978l-55.534-19.321V175.85c15.347-15.389,25.341-39.829,25.341-67.396   c0-46.476-28.271-84.282-63.028-84.282s-63.028,37.806-63.028,84.282c0,27.573,10,52.031,25.359,67.414v23.301l-55.91,19.452   C12.671,194.448,0.003,162.89,0.003,129.344C0.003,58.022,58.031,0,129.347,0s129.338,58.022,129.338,129.344   C258.691,163.075,245.898,194.747,222.567,218.978z" data-original="#010002" class="active-path" data-old_color="#010002" fill="#1BB0DF"/>
</g></g> </svg>
