<svg id="Capa_1" enable-background="new 0 0 512 512" height="512" viewBox="0 0 512 512" width="512" xmlns="http://www.w3.org/2000/svg"><g><path d="m512 230v237c0 24.81-20.19 45-45 45h-422c-24.81 0-45-20.19-45-45v-237c0-13.33 5.83-25.32 15.07-33.57 7.95-7.1 18.45-11.43 29.93-11.43h422c11.48 0 21.98 4.33 29.93 11.43 9.24 8.25 15.07 20.24 15.07 33.57z" fill="#fdbf00"/><path d="m467 185h-211v327h211c24.813 0 45-20.187 45-45v-237c0-24.813-20.187-45-45-45z" fill="#ff9100"/><path d="m496.93 500.57-193.88-150.77-28.57-22.34c-5.44-4.26-11.96-6.39-18.48-6.39s-13.04 2.13-18.49 6.39l-28.62 22.38-193.82 150.73c7.95 7.1 18.45 11.43 29.93 11.43h422c11.48 0 21.98-4.33 29.93-11.43z" fill="#ff9100"/><path d="m256 512v-190.93c6.52 0 13.04 2.13 18.48 6.39l28.57 22.34 193.88 150.77c-7.95 7.1-18.45 11.43-29.93 11.43z" fill="#ed8600"/><path d="m496.93 196.43-193.88 150.77-28.57 22.34c-5.44 4.26-11.96 6.39-18.48 6.39s-13.04-2.13-18.49-6.39l-28.62-22.38-193.82-150.73c7.95-7.1 18.45-11.43 29.93-11.43h422c11.48 0 21.98 4.33 29.93 11.43z" fill="#ffda2d"/><path d="m256 185v190.93c6.52 0 13.04-2.13 18.48-6.39l28.57-22.34 193.88-150.77c-7.95-7.1-18.45-11.43-29.93-11.43z" fill="#fdbf00"/><circle cx="256" cy="127" fill="#6c6c6c" r="127"/><path d="m383 127c0-70.028-56.972-127-127-127v254c70.028 0 127-56.972 127-127z" fill="#404040"/><path d="m256 113c-8.284 0-15 6.716-15 15v48c0 8.284 6.716 15 15 15s15-6.716 15-15v-48c0-8.284-6.716-15-15-15z" fill="#27d8f6"/><path d="m271 176v-48c0-8.284-6.716-15-15-15v78c8.284 0 15-6.716 15-15z" fill="#3aaaff"/><circle cx="256" cy="80.001" fill="#27d8f6" r="15"/><path d="m271 80.001c0-8.284-6.716-15-15-15v30c8.284 0 15-6.716 15-15z" fill="#3aaaff"/></g></svg>