<?xml version="1.0" standalone="no"?>
<!DOCTYPE svg PUBLIC "-//W3C//DTD SVG 20010904//EN"
 "http://www.w3.org/TR/2001/REC-SVG-20010904/DTD/svg10.dtd">
<svg version="1.0" xmlns="http://www.w3.org/2000/svg"
 width="512.000000pt" height="512.000000pt" viewBox="0 0 512.000000 512.000000"
 preserveAspectRatio="xMidYMid meet">
<metadata>
Created by potrace 1.16, written by Peter Selinger 2001-2019
</metadata>
<g transform="translate(0.000000,512.000000) scale(0.100000,-0.100000)"
fill="#000000" stroke="none">
<path d="M2240 5105 c-456 -57 -891 -237 -1260 -523 -117 -91 -316 -287 -413
-407 -263 -326 -441 -705 -521 -1110 -36 -181 -46 -296 -46 -505 0 -209 10
-324 46 -505 100 -509 347 -962 725 -1330 303 -296 646 -499 1043 -619 243
-74 468 -106 746 -106 209 0 324 10 505 46 390 77 755 244 1075 492 117 91
316 287 413 407 263 326 441 705 521 1110 36 181 46 296 46 505 0 209 -10 324
-46 505 -77 390 -244 755 -492 1075 -91 117 -287 316 -407 413 -196 158 -451
307 -678 397 -189 74 -453 138 -659 160 -131 14 -469 11 -598 -5z m575 -520
c334 -48 604 -150 877 -331 53 -35 99 -68 102 -72 3 -5 -638 -651 -1423 -1436
l-1428 -1428 -45 63 c-331 466 -450 1031 -337 1594 42 208 148 470 269 666
155 249 400 494 649 649 252 156 562 266 844 299 118 14 384 12 492 -4z m1439
-893 c308 -463 414 -1003 305 -1547 -42 -208 -148 -470 -269 -666 -155 -249
-400 -494 -649 -649 -455 -282 -988 -376 -1510 -265 -258 54 -524 172 -750
333 l-63 45 1428 1428 c785 785 1431 1426 1436 1423 4 -3 37 -49 72 -102z"/>
</g>
</svg>
