<?xml version="1.0" standalone="no"?>
<!DOCTYPE svg PUBLIC "-//W3C//DTD SVG 20010904//EN"
 "http://www.w3.org/TR/2001/REC-SVG-20010904/DTD/svg10.dtd">
<svg version="1.0" xmlns="http://www.w3.org/2000/svg"
 width="512.000000pt" height="512.000000pt" viewBox="0 0 512.000000 512.000000"
 preserveAspectRatio="xMidYMid meet">
<metadata>
Created by potrace 1.16, written by Peter Selinger 2001-2019
</metadata>
<g transform="translate(0.000000,512.000000) scale(0.100000,-0.100000)"
fill="#000000" stroke="none">
<path d="M3083 4844 c-254 -37 -515 -132 -715 -261 -395 -254 -655 -649 -703
-1064 l-6 -57 -77 -7 c-514 -45 -1033 -320 -1310 -693 -138 -186 -217 -367
-257 -587 -21 -113 -16 -380 10 -495 50 -225 168 -459 318 -632 l49 -57 5 -98
c9 -158 -41 -303 -146 -428 -46 -53 -51 -64 -51 -106 0 -41 4 -51 32 -74 33
-28 33 -28 148 -22 232 12 454 102 642 259 l46 40 74 -21 c200 -56 392 -81
618 -81 250 0 452 36 668 116 564 211 966 691 1027 1227 6 57 7 57 40 57 98 0
358 44 488 82 l68 20 47 -39 c188 -158 410 -248 642 -260 115 -6 115 -6 148
22 28 23 32 33 32 74 0 42 -5 53 -51 106 -105 125 -155 270 -146 428 l5 98 49
57 c113 130 220 317 276 482 45 132 59 217 64 390 6 186 -6 278 -58 439 -179
557 -748 988 -1434 1086 -125 18 -417 18 -542 -1z m529 -209 c186 -28 326 -71
497 -151 313 -148 559 -380 692 -653 76 -158 109 -300 109 -473 0 -286 -99
-542 -302 -780 -83 -97 -93 -132 -93 -328 1 -140 2 -149 37 -248 19 -56 35
-102 34 -102 -20 2 -109 36 -157 60 -86 44 -140 81 -225 157 -40 35 -84 66
-101 69 -20 4 -62 -4 -125 -25 -112 -36 -258 -66 -383 -81 -140 -15 -133 -17
-140 38 -41 320 -184 603 -426 845 l-98 97 668 0 668 0 27 26 c37 38 37 110 0
148 l-27 26 -822 0 -822 0 -74 34 c-175 81 -416 146 -602 162 l-78 7 7 46 c3
25 14 80 25 121 90 360 352 667 729 855 154 77 316 124 540 158 70 11 350 6
442 -8z m-1517 -1415 c314 -67 585 -209 790 -415 115 -114 174 -194 240 -321
139 -270 165 -592 70 -879 -146 -444 -560 -787 -1085 -902 -89 -19 -156 -26
-297 -30 -250 -8 -439 17 -667 88 -65 20 -110 29 -129 25 -17 -3 -62 -34 -101
-69 -85 -76 -139 -113 -225 -157 -48 -24 -137 -58 -157 -60 -1 0 15 46 34 102
35 99 36 108 37 248 0 196 -10 231 -93 328 -203 238 -302 494 -302 780 0 331
142 625 426 883 186 167 492 319 754 373 149 31 198 35 400 31 162 -2 226 -8
305 -25z"/>
<path d="M2486 3834 c-21 -21 -26 -36 -26 -74 0 -38 5 -53 26 -74 21 -21 36
-26 74 -26 38 0 53 5 74 26 21 21 26 36 26 74 0 38 -5 53 -26 74 -21 21 -36
26 -74 26 -38 0 -53 -5 -74 -26z"/>
<path d="M2886 3834 c-21 -21 -26 -36 -26 -74 0 -38 5 -53 26 -74 l27 -26 677
0 677 0 27 26 c21 21 26 36 26 74 0 38 -5 53 -26 74 l-27 26 -677 0 -677 0
-27 -26z"/>
<path d="M826 2234 c-21 -21 -26 -36 -26 -74 0 -66 34 -100 100 -100 38 0 53
5 74 26 37 38 37 110 0 148 -21 21 -36 26 -74 26 -38 0 -53 -5 -74 -26z"/>
<path d="M1226 2234 c-37 -38 -37 -110 0 -148 l27 -26 677 0 677 0 27 26 c21
21 26 36 26 74 0 38 -5 53 -26 74 l-27 26 -677 0 -677 0 -27 -26z"/>
<path d="M826 1634 c-37 -38 -37 -110 0 -148 l27 -26 877 0 877 0 27 26 c37
38 37 110 0 148 l-27 26 -877 0 -877 0 -27 -26z"/>
</g>
</svg>
